<svg xmlns="http://www.w3.org/2000/svg" width="1600" height="2000" viewBox="0 0 1600 2000" preserveAspectRatio="xMidYMid slice">
  <defs>
    <linearGradient id="wallL" x1="0" y1="0" x2="1" y2="0"><stop offset="0" stop-color="#e9ded4"/><stop offset="0.72" stop-color="#e2d5c9"/><stop offset="1" stop-color="#d7c7ba"/></linearGradient>
    <linearGradient id="wallR" x1="1" y1="0" x2="0" y2="0"><stop offset="0" stop-color="#e8ddd3"/><stop offset="0.72" stop-color="#e1d4c8"/><stop offset="1" stop-color="#d4c5b7"/></linearGradient>
    <linearGradient id="revealL" x1="0" y1="0" x2="1" y2="0"><stop offset="0" stop-color="#c7b6a7"/><stop offset="0.44" stop-color="#eee3da"/><stop offset="0.72" stop-color="#dfd0c3"/><stop offset="1" stop-color="#ab9989"/></linearGradient>
    <linearGradient id="revealR" x1="0" y1="0" x2="1" y2="0"><stop offset="0" stop-color="#a79687"/><stop offset="0.30" stop-color="#cbbbb0"/><stop offset="0.62" stop-color="#eee3d9"/><stop offset="1" stop-color="#bcaa9a"/></linearGradient>
    <linearGradient id="niche" x1="0" y1="0" x2="0" y2="1"><stop offset="0" stop-color="#b9afa3"/><stop offset="0.22" stop-color="#c3b9af"/><stop offset="0.54" stop-color="#c8c0b6"/><stop offset="0.80" stop-color="#bcb4ab"/><stop offset="1" stop-color="#aaa39a"/></linearGradient>
    <radialGradient id="light" cx="50%" cy="40%" rx="48%" ry="42%"><stop offset="0" stop-color="#fffaf4" stop-opacity="0.17"/><stop offset="0.46" stop-color="#fffaf4" stop-opacity="0.055"/><stop offset="1" stop-color="#fffaf4" stop-opacity="0"/></radialGradient>
    <linearGradient id="castL" x1="0" y1="0" x2="1" y2="0"><stop offset="0" stop-color="#3e3026" stop-opacity="0.19"/><stop offset="1" stop-color="#3e3026" stop-opacity="0"/></linearGradient>
    <linearGradient id="castR" x1="1" y1="0" x2="0" y2="0"><stop offset="0" stop-color="#3e3026" stop-opacity="0.14"/><stop offset="1" stop-color="#3e3026" stop-opacity="0"/></linearGradient>
    <linearGradient id="floor" x1="0" y1="0" x2="0" y2="1"><stop offset="0" stop-color="#bbb3aa"/><stop offset="1" stop-color="#aaa299"/></linearGradient>
    <filter id="b40" x="-40%" y="-20%" width="180%" height="140%"><feGaussianBlur stdDeviation="34"/></filter>
    <filter id="b65" x="-50%" y="-30%" width="200%" height="160%"><feGaussianBlur stdDeviation="54"/></filter>
    <filter id="grain" x="0" y="0" width="100%" height="100%"><feTurbulence type="fractalNoise" baseFrequency="0.75" numOctaves="2" seed="11" result="n"/><feColorMatrix in="n" type="matrix" values="0.9 0 0 0 .05 0 .82 0 0 .045 0 0 .75 0 .04 0 0 0 .03 0" result="g"/><feBlend in="SourceGraphic" in2="g" mode="multiply"/></filter>
  </defs>
  <g filter="url(#grain)">
    <rect width="1600" height="2000" fill="#e4d7cc"/>
    <rect x="0" y="0" width="344" height="1770" fill="url(#wallL)"/>
    <rect x="344" y="0" width="36" height="1770" fill="url(#revealL)"/>
    <rect x="380" y="0" width="840" height="1770" fill="url(#niche)"/>
    <rect x="380" y="0" width="840" height="1770" fill="url(#light)"/>
    <rect x="1220" y="0" width="36" height="1770" fill="url(#revealR)"/>
    <rect x="1256" y="0" width="344" height="1770" fill="url(#wallR)"/>
    <rect x="348" y="0" width="135" height="1770" fill="url(#castL)" filter="url(#b40)"/>
    <rect x="1110" y="0" width="140" height="1770" fill="url(#castR)" filter="url(#b40)"/>
    <rect x="380" y="0" width="840" height="230" fill="#403126" fill-opacity="0.055" filter="url(#b40)"/>
    <rect x="0" y="1770" width="1600" height="230" fill="url(#floor)"/>
    <ellipse cx="394" cy="1810" rx="120" ry="90" fill="#44352b" fill-opacity="0.10" filter="url(#b65)"/>
    <ellipse cx="1215" cy="1810" rx="112" ry="86" fill="#44352b" fill-opacity="0.07" filter="url(#b65)"/>
  </g>
</svg>